<svg width="26" height="18" viewBox="0 0 26 18" fill="none" xmlns="http://www.w3.org/2000/svg">
<path fill-rule="evenodd" clip-rule="evenodd" d="M20.0417 16.0416H12.1875C9.79767 16.0416 7.85417 14.0981 7.85417 11.7083C7.85417 9.31842 9.79767 7.37492 12.1875 7.37492H14.0985C14.547 7.37492 14.911 7.01092 14.911 6.56242C14.911 6.11392 14.547 5.74992 14.0985 5.74992H12.1875C9.27225 5.74992 6.8445 7.85592 6.33317 10.6249H5.95833C3.5685 10.6249 1.625 8.68142 1.625 6.29158C1.625 3.90175 3.5685 1.95825 5.95833 1.95825H13.8125C16.2023 1.95825 18.1458 3.90175 18.1458 6.29158C18.1458 8.68142 16.2023 10.6249 13.8125 10.6249H11.9015C11.453 10.6249 11.089 10.9889 11.089 11.4374C11.089 11.8859 11.453 12.2499 11.9015 12.2499H13.8125C16.7278 12.2499 19.1555 10.1439 19.6668 7.37492H20.0417C22.4315 7.37492 24.375 9.31842 24.375 11.7083C24.375 14.0981 22.4315 16.0416 20.0417 16.0416ZM20.0417 5.74992H19.7438C19.4686 2.71767 16.9152 0.333252 13.8125 0.333252H5.95833C2.67258 0.333252 0 3.00584 0 6.29158C0 9.57733 2.67258 12.2499 5.95833 12.2499H6.25625C6.53142 15.2822 9.08483 17.6666 12.1875 17.6666H20.0417C23.3274 17.6666 26 14.994 26 11.7083C26 8.4225 23.3274 5.74992 20.0417 5.74992Z" fill="#444B52"/>
</svg>
