<svg width="24" height="24" viewBox="0 0 24 24" fill="none" xmlns="http://www.w3.org/2000/svg">
<path d="M3.00013 10.741V19.2621C3.00013 19.723 3.17835 20.1651 3.49568 20.491C3.81301 20.817 4.24341 21 4.69212 21H7.51408C7.88165 21 8.23419 20.85 8.49417 20.583C8.75404 20.3161 8.90013 19.954 8.90013 19.5763V14.8702C8.90061 14.4802 9.0517 14.1064 9.32013 13.8307C9.58857 13.555 9.95246 13.3999 10.332 13.3993H13.6681C14.0477 13.3999 14.4116 13.555 14.68 13.8307C14.9484 14.1064 15.0995 14.4802 15.1 14.8702V19.5763C15.1 19.954 15.2461 20.3161 15.506 20.583C15.766 20.85 16.1185 21 16.486 21H19.308C19.7567 21 20.1871 20.8169 20.5045 20.491C20.8218 20.1651 21 19.723 21 19.2621V10.741C20.999 10.2139 20.7659 9.71562 20.3659 9.38527L13.056 3.38056C12.7563 3.13422 12.3838 3 12 3C11.6162 3 11.2437 3.13422 10.944 3.38056L3.63405 9.38527C3.2341 9.71559 3.001 10.2139 3 10.741H3.00013Z" fill="#060B11"/>
</svg>
