<svg width="70" height="14" viewBox="0 0 70 14" fill="none" xmlns="http://www.w3.org/2000/svg">
<path d="M0.378 0.526C1.206 0.526 1.638 1.156 1.638 2.326V13H1.908V2.56L9.45 13H10.998L10.494 12.298V0.399999H8.964V0.526C9.792 0.526 10.224 1.156 10.224 2.326V11.92L1.908 0.399999H0.378V0.526ZM13.9906 9.832L16.9786 2.326V2.344C16.9786 2.614 16.9966 2.974 16.9966 3.388C16.9966 5.548 16.8166 9.202 15.3766 11.308C15.1066 11.704 14.8186 11.884 14.5666 11.884C14.0806 11.884 13.8106 11.362 13.8106 10.732C13.8106 10.444 13.8826 10.12 13.9906 9.832ZM12.4246 13H12.7126C16.6906 13 17.1406 7.402 17.1406 4.09C17.1406 3.55 17.1226 3.064 17.1226 2.686L21.2446 13H22.7926L17.7526 0.399999H14.9986V0.526C15.8626 0.526 16.4206 0.957999 16.8166 1.93L16.8346 1.966L12.4246 13ZM22.9125 0.526C23.7405 0.526 24.1725 1.156 24.1725 2.326V13H24.4425V3.01L29.9865 13H31.4265L30.6345 11.56L35.3865 2.992V13H36.8265V0.399999H36.5205L30.4725 11.29L24.4425 0.399999H22.9125V0.526ZM43.3281 13.234C45.9381 13.234 47.4681 12.118 47.4681 9.688C47.4681 7.582 45.8301 6.79 43.8681 6.034C41.9781 5.314 40.5021 4.594 40.5021 2.902C40.5021 1.354 41.9061 0.669999 42.9861 0.669999C45.8841 0.669999 46.7661 4.144 46.7661 4.288L46.8921 4.27V0.399999H43.1841C40.9881 0.399999 39.4761 1.588 39.4761 3.514C39.4761 5.854 41.3481 6.772 43.3821 7.6C45.2901 8.374 46.6581 9.076 46.6581 10.534C46.6581 12.388 44.7321 12.964 43.3101 12.964C41.5281 12.964 39.9261 10.876 39.2781 8.734L39.1521 8.752L39.3861 12.388C39.8181 12.658 40.9341 13.234 43.3281 13.234ZM50.2601 9.832L53.2481 2.326V2.344C53.2481 2.614 53.2661 2.974 53.2661 3.388C53.2661 5.548 53.0861 9.202 51.6461 11.308C51.3761 11.704 51.0881 11.884 50.8361 11.884C50.3501 11.884 50.0801 11.362 50.0801 10.732C50.0801 10.444 50.1521 10.12 50.2601 9.832ZM48.6941 13H48.9821C52.9601 13 53.4101 7.402 53.4101 4.09C53.4101 3.55 53.3921 3.064 53.3921 2.686L57.5141 13H59.0621L54.0221 0.399999H51.2681V0.526C52.1321 0.526 52.6901 0.957999 53.0861 1.93L53.1041 1.966L48.6941 13ZM59.128 0.526C59.956 0.526 60.388 1.156 60.388 2.326V13H60.658V2.56L68.2 13H69.748L69.244 12.298V0.399999H67.714V0.526C68.542 0.526 68.974 1.156 68.974 2.326V11.92L60.658 0.399999H59.128V0.526Z" fill="white"/>
<path d="M0.378 0.526H0.128V0.776H0.378V0.526ZM1.638 13H1.388V13.25H1.638V13ZM1.908 13V13.25H2.158V13H1.908ZM1.908 2.56L2.11065 2.4136L1.658 1.78702V2.56H1.908ZM9.45 13L9.24735 13.1464L9.32219 13.25H9.45V13ZM10.998 13V13.25H11.4852L11.2011 12.8542L10.998 13ZM10.494 12.298H10.244V12.3785L10.2909 12.4438L10.494 12.298ZM10.494 0.399999H10.744V0.149999H10.494V0.399999ZM8.964 0.399999V0.149999H8.714V0.399999H8.964ZM8.964 0.526H8.714V0.776H8.964V0.526ZM10.224 11.92L10.0213 12.0663L10.474 12.6934V11.92H10.224ZM1.908 0.399999L2.1107 0.253673L2.03586 0.149999H1.908V0.399999ZM0.378 0.399999V0.149999H0.128V0.399999H0.378ZM0.378 0.776C0.719191 0.776 0.953489 0.900537 1.11334 1.13011C1.28332 1.37422 1.388 1.76512 1.388 2.326H1.888C1.888 1.71688 1.77668 1.20777 1.52366 0.844394C1.26051 0.466462 0.864809 0.276 0.378 0.276V0.776ZM1.388 2.326V13H1.888V2.326H1.388ZM1.638 13.25H1.908V12.75H1.638V13.25ZM2.158 13V2.56H1.658V13H2.158ZM1.70535 2.7064L9.24735 13.1464L9.65265 12.8536L2.11065 2.4136L1.70535 2.7064ZM9.45 13.25H10.998V12.75H9.45V13.25ZM11.2011 12.8542L10.6971 12.1522L10.2909 12.4438L10.7949 13.1458L11.2011 12.8542ZM10.744 12.298V0.399999H10.244V12.298H10.744ZM10.494 0.149999H8.964V0.649999H10.494V0.149999ZM8.714 0.399999V0.526H9.214V0.399999H8.714ZM8.964 0.776C9.30519 0.776 9.53949 0.900537 9.69934 1.13011C9.86932 1.37422 9.974 1.76512 9.974 2.326H10.474C10.474 1.71688 10.3627 1.20777 10.1097 0.844394C9.84651 0.466462 9.45081 0.276 8.964 0.276V0.776ZM9.974 2.326V11.92H10.474V2.326H9.974ZM10.4267 11.7737L2.1107 0.253673L1.7053 0.546326L10.0213 12.0663L10.4267 11.7737ZM1.908 0.149999H0.378V0.649999H1.908V0.149999ZM0.128 0.399999V0.526H0.628V0.399999H0.128ZM13.9906 9.832L13.7583 9.73952L13.7565 9.74422L13.9906 9.832ZM16.9786 2.326H17.2286L16.7463 2.23354L16.9786 2.326ZM15.3766 11.308L15.1702 11.1669L15.17 11.1672L15.3766 11.308ZM12.4246 13L12.1924 12.9072L12.0554 13.25H12.4246V13ZM17.1226 2.686L17.3547 2.59322L16.8726 2.686H17.1226ZM21.2446 13L21.0124 13.0928L21.0753 13.25H21.2446V13ZM22.7926 13V13.25H23.1618L23.0247 12.9072L22.7926 13ZM17.7526 0.399999L17.9847 0.307151L17.9218 0.149999H17.7526V0.399999ZM14.9986 0.399999V0.149999H14.7486V0.399999H14.9986ZM14.9986 0.526H14.7486V0.776H14.9986V0.526ZM16.8166 1.93L16.5851 2.02432L16.5887 2.03322L16.593 2.0418L16.8166 1.93ZM16.8346 1.966L17.0667 2.05878L17.1084 1.95457L17.0582 1.85419L16.8346 1.966ZM14.2229 9.92446L17.2109 2.41846L16.7463 2.23354L13.7583 9.73954L14.2229 9.92446ZM16.7286 2.326V2.344H17.2286V2.326H16.7286ZM16.7286 2.344C16.7286 2.48306 16.7332 2.64469 16.7377 2.81841C16.7422 2.99364 16.7466 3.18442 16.7466 3.388H17.2466C17.2466 3.17758 17.242 2.98136 17.2375 2.80559C17.233 2.62831 17.2286 2.47494 17.2286 2.344H16.7286ZM16.7466 3.388C16.7466 4.46237 16.7017 5.90136 16.4795 7.32983C16.2566 8.7634 15.8589 10.1597 15.1702 11.1669L15.5829 11.4491C16.3343 10.3503 16.7466 8.8666 16.9736 7.40667C17.2015 5.94164 17.2466 4.47363 17.2466 3.388H16.7466ZM15.17 11.1672C14.9191 11.5352 14.6968 11.634 14.5666 11.634V12.134C14.9403 12.134 15.2941 11.8728 15.5831 11.4488L15.17 11.1672ZM14.5666 11.634C14.4288 11.634 14.3127 11.5657 14.2195 11.4136C14.1221 11.2547 14.0606 11.0158 14.0606 10.732H13.5606C13.5606 11.0782 13.6341 11.4153 13.7932 11.6749C13.9565 11.9413 14.2184 12.134 14.5666 12.134V11.634ZM14.0606 10.732C14.0606 10.4815 14.1242 10.1877 14.2247 9.91978L13.7565 9.74422C13.641 10.0523 13.5606 10.4065 13.5606 10.732H14.0606ZM12.4246 13.25H12.7126V12.75H12.4246V13.25ZM12.7126 13.25C13.7728 13.25 14.6084 12.8743 15.2557 12.2541C15.8968 11.6395 16.3431 10.7951 16.6553 9.86667C17.2788 8.01239 17.3906 5.75039 17.3906 4.09H16.8906C16.8906 5.74161 16.7774 7.93461 16.1814 9.70732C15.8838 10.5924 15.4717 11.3545 14.9097 11.8931C14.3537 12.4259 13.6413 12.75 12.7126 12.75V13.25ZM17.3906 4.09C17.3906 3.81741 17.386 3.55884 17.3815 3.32249C17.377 3.08507 17.3726 2.87202 17.3726 2.686H16.8726C16.8726 2.87798 16.8771 3.09693 16.8816 3.33201C16.8861 3.56816 16.8906 3.82259 16.8906 4.09H17.3906ZM16.8904 2.77878L21.0124 13.0928L21.4767 12.9072L17.3547 2.59322L16.8904 2.77878ZM21.2446 13.25H22.7926V12.75H21.2446V13.25ZM23.0247 12.9072L17.9847 0.307151L17.5205 0.492847L22.5605 13.0928L23.0247 12.9072ZM17.7526 0.149999H14.9986V0.649999H17.7526V0.149999ZM14.7486 0.399999V0.526H15.2486V0.399999H14.7486ZM14.9986 0.776C15.3859 0.776 15.6847 0.87161 15.9302 1.06132C16.1802 1.2545 16.3968 1.56214 16.5851 2.02432L17.0481 1.83568C16.8404 1.32586 16.5799 0.931504 16.2359 0.665679C15.8874 0.396389 15.4753 0.276 14.9986 0.276V0.776ZM16.593 2.0418L16.611 2.0778L17.0582 1.85419L17.0402 1.8182L16.593 2.0418ZM16.6024 1.87322L12.1924 12.9072L12.6567 13.0928L17.0667 2.05878L16.6024 1.87322ZM22.9125 0.526H22.6625V0.776H22.9125V0.526ZM24.1725 13H23.9225V13.25H24.1725V13ZM24.4425 13V13.25H24.6925V13H24.4425ZM24.4425 3.01L24.6611 2.88869L24.1925 2.04431V3.01H24.4425ZM29.9865 13L29.7679 13.1213L29.8393 13.25H29.9865V13ZM31.4265 13V13.25H31.8493L31.6455 12.8795L31.4265 13ZM30.6345 11.56L30.4158 11.4387L30.3489 11.5595L30.4154 11.6805L30.6345 11.56ZM35.3865 2.992H35.6365V2.0258L35.1678 2.87074L35.3865 2.992ZM35.3865 13H35.1365V13.25H35.3865V13ZM36.8265 13V13.25H37.0765V13H36.8265ZM36.8265 0.399999H37.0765V0.149999H36.8265V0.399999ZM36.5205 0.399999V0.149999H36.3733L36.3019 0.278619L36.5205 0.399999ZM30.4725 11.29L30.2538 11.4111L30.4721 11.8055L30.691 11.4114L30.4725 11.29ZM24.4425 0.399999L24.6612 0.278895L24.5898 0.149999H24.4425V0.399999ZM22.9125 0.399999V0.149999H22.6625V0.399999H22.9125ZM22.9125 0.776C23.2537 0.776 23.488 0.900537 23.6478 1.13011C23.8178 1.37422 23.9225 1.76512 23.9225 2.326H24.4225C24.4225 1.71688 24.3112 1.20777 24.0581 0.844394C23.795 0.466462 23.3993 0.276 22.9125 0.276V0.776ZM23.9225 2.326V13H24.4225V2.326H23.9225ZM24.1725 13.25H24.4425V12.75H24.1725V13.25ZM24.6925 13V3.01H24.1925V13H24.6925ZM24.2239 3.13131L29.7679 13.1213L30.2051 12.8787L24.6611 2.88869L24.2239 3.13131ZM29.9865 13.25H31.4265V12.75H29.9865V13.25ZM31.6455 12.8795L30.8535 11.4395L30.4154 11.6805L31.2074 13.1205L31.6455 12.8795ZM30.8531 11.6813L35.6051 3.11325L35.1678 2.87074L30.4158 11.4387L30.8531 11.6813ZM35.1365 2.992V13H35.6365V2.992H35.1365ZM35.3865 13.25H36.8265V12.75H35.3865V13.25ZM37.0765 13V0.399999H36.5765V13H37.0765ZM36.8265 0.149999H36.5205V0.649999H36.8265V0.149999ZM36.3019 0.278619L30.2539 11.1686L30.691 11.4114L36.739 0.521379L36.3019 0.278619ZM30.6912 11.1689L24.6612 0.278895L24.2238 0.521103L30.2538 11.4111L30.6912 11.1689ZM24.4425 0.149999H22.9125V0.649999H24.4425V0.149999ZM22.6625 0.399999V0.526H23.1625V0.399999H22.6625ZM43.8681 6.034L43.958 5.80072L43.9571 5.80038L43.8681 6.034ZM46.7661 4.288H46.5161V4.57625L46.8014 4.53549L46.7661 4.288ZM46.8921 4.27L46.9274 4.51749L47.1421 4.48682V4.27H46.8921ZM46.8921 0.399999H47.1421V0.149999H46.8921V0.399999ZM43.3821 7.6L43.2878 7.83155L43.2881 7.83166L43.3821 7.6ZM39.2781 8.734L39.5174 8.66161L39.4552 8.45616L39.2427 8.48651L39.2781 8.734ZM39.1521 8.752L39.1167 8.50451L38.8877 8.53722L38.9026 8.76806L39.1521 8.752ZM39.3861 12.388L39.1366 12.4041L39.1448 12.532L39.2536 12.6L39.3861 12.388ZM43.3281 13.484C44.6631 13.484 45.7645 13.1994 46.5356 12.5654C47.3155 11.9241 47.7181 10.9584 47.7181 9.688H47.2181C47.2181 10.8476 46.8556 11.6549 46.218 12.1791C45.5717 12.7106 44.603 12.984 43.3281 12.984V13.484ZM47.7181 9.688C47.7181 8.55596 47.2719 7.76363 46.5656 7.16415C45.8745 6.57753 44.9365 6.17777 43.958 5.80072L43.7782 6.26728C44.7616 6.64623 45.6237 7.02047 46.242 7.54535C46.8453 8.05737 47.2181 8.71404 47.2181 9.688H47.7181ZM43.9571 5.80038C43.0099 5.43957 42.2031 5.09119 41.632 4.63686C41.0748 4.19366 40.7521 3.65827 40.7521 2.902H40.2521C40.2521 3.83773 40.6673 4.50834 41.3207 5.02814C41.9601 5.53681 42.8362 5.90843 43.7791 6.26762L43.9571 5.80038ZM40.7521 2.902C40.7521 2.21447 41.0595 1.72766 41.4891 1.4055C41.9264 1.0775 42.493 0.919999 42.9861 0.919999V0.419999C42.3991 0.419999 41.7237 0.6045 41.1891 1.0055C40.6466 1.41234 40.2521 2.04153 40.2521 2.902H40.7521ZM42.9861 0.919999C44.3182 0.919999 45.1959 1.7135 45.7539 2.56233C46.0324 2.98594 46.2253 3.41567 46.3485 3.74867C46.41 3.91487 46.4535 4.05547 46.4814 4.1572C46.4953 4.2082 46.505 4.2483 46.511 4.27616C46.5194 4.31519 46.5161 4.31039 46.5161 4.288H47.0161C47.0161 4.24761 47.0058 4.19879 46.9999 4.17111C46.9915 4.13227 46.9795 4.08297 46.9636 4.02518C46.9319 3.90937 46.8839 3.75494 46.8174 3.5752C46.6847 3.21633 46.476 2.75056 46.1717 2.28767C45.5642 1.36349 44.552 0.419999 42.9861 0.419999V0.919999ZM46.8014 4.53549L46.9274 4.51749L46.8567 4.02251L46.7307 4.04051L46.8014 4.53549ZM47.1421 4.27V0.399999H46.6421V4.27H47.1421ZM46.8921 0.149999H43.1841V0.649999H46.8921V0.149999ZM43.1841 0.149999C42.0432 0.149999 41.0553 0.45859 40.3476 1.04182C39.6349 1.62918 39.2261 2.47971 39.2261 3.514H39.7261C39.7261 2.62229 40.0732 1.91582 40.6656 1.42767C41.2629 0.935409 42.129 0.649999 43.1841 0.649999V0.149999ZM39.2261 3.514C39.2261 4.76455 39.7319 5.6455 40.5026 6.31298C41.2599 6.96884 42.273 7.41845 43.2878 7.83155L43.4763 7.36845C42.4571 6.95355 41.5172 6.53016 40.83 5.93502C40.1562 5.35149 39.7261 4.60345 39.7261 3.514H39.2261ZM43.2881 7.83166C44.2445 8.21965 45.0322 8.57731 45.5814 9.00734C46.1188 9.42804 46.4081 9.90149 46.4081 10.534H46.9081C46.9081 9.70851 46.5134 9.10196 45.8897 8.61366C45.2779 8.13469 44.4276 7.75435 43.476 7.36834L43.2881 7.83166ZM46.4081 10.534C46.4081 11.3542 45.9907 11.8867 45.3935 12.2271C44.7842 12.5744 43.9942 12.714 43.3101 12.714V13.214C44.0479 13.214 44.932 13.0656 45.6411 12.6614C46.3624 12.2503 46.9081 11.5678 46.9081 10.534H46.4081ZM43.3101 12.714C42.5192 12.714 41.7356 12.2486 41.0554 11.4859C40.3786 10.7268 39.8323 9.70276 39.5174 8.66161L39.0388 8.80639C39.3718 9.90724 39.9506 10.9982 40.6822 11.8186C41.4106 12.6354 42.319 13.214 43.3101 13.214V12.714ZM39.2427 8.48651L39.1167 8.50451L39.1874 8.99949L39.3134 8.98149L39.2427 8.48651ZM38.9026 8.76806L39.1366 12.4041L39.6355 12.3719L39.4015 8.73594L38.9026 8.76806ZM39.2536 12.6C39.7268 12.8958 40.889 13.484 43.3281 13.484V12.984C40.9791 12.984 39.9093 12.4202 39.5186 12.176L39.2536 12.6ZM50.2601 9.832L50.0278 9.73952L50.026 9.74422L50.2601 9.832ZM53.2481 2.326H53.4981L53.0158 2.23354L53.2481 2.326ZM51.6461 11.308L51.4397 11.1669L51.4396 11.1672L51.6461 11.308ZM48.6941 13L48.462 12.9072L48.325 13.25H48.6941V13ZM53.3921 2.686L53.6243 2.59322L53.1421 2.686H53.3921ZM57.5141 13L57.282 13.0928L57.3448 13.25H57.5141V13ZM59.0621 13V13.25H59.4314L59.2942 12.9072L59.0621 13ZM54.0221 0.399999L54.2542 0.307151L54.1914 0.149999H54.0221V0.399999ZM51.2681 0.399999V0.149999H51.0181V0.399999H51.2681ZM51.2681 0.526H51.0181V0.776H51.2681V0.526ZM53.0861 1.93L52.8546 2.02432L52.8582 2.03322L52.8625 2.0418L53.0861 1.93ZM53.1041 1.966L53.3363 2.05878L53.3779 1.95457L53.3277 1.85419L53.1041 1.966ZM50.4924 9.92446L53.4804 2.41846L53.0158 2.23354L50.0278 9.73954L50.4924 9.92446ZM52.9981 2.326V2.344H53.4981V2.326H52.9981ZM52.9981 2.344C52.9981 2.48306 53.0027 2.64469 53.0072 2.81841C53.0117 2.99364 53.0161 3.18442 53.0161 3.388H53.5161C53.5161 3.17758 53.5115 2.98136 53.507 2.80559C53.5025 2.62831 53.4981 2.47494 53.4981 2.344H52.9981ZM53.0161 3.388C53.0161 4.46237 52.9712 5.90136 52.7491 7.32983C52.5261 8.7634 52.1284 10.1597 51.4397 11.1669L51.8525 11.4491C52.6038 10.3503 53.0161 8.8666 53.2431 7.40667C53.471 5.94164 53.5161 4.47363 53.5161 3.388H53.0161ZM51.4396 11.1672C51.1886 11.5352 50.9664 11.634 50.8361 11.634V12.134C51.2099 12.134 51.5636 11.8728 51.8527 11.4488L51.4396 11.1672ZM50.8361 11.634C50.6983 11.634 50.5822 11.5657 50.489 11.4136C50.3916 11.2547 50.3301 11.0158 50.3301 10.732H49.8301C49.8301 11.0782 49.9036 11.4153 50.0627 11.6749C50.226 11.9413 50.4879 12.134 50.8361 12.134V11.634ZM50.3301 10.732C50.3301 10.4815 50.3937 10.1877 50.4942 9.91978L50.026 9.74422C49.9105 10.0523 49.8301 10.4065 49.8301 10.732H50.3301ZM48.6941 13.25H48.9821V12.75H48.6941V13.25ZM48.9821 13.25C50.0423 13.25 50.878 12.8743 51.5252 12.2541C52.1664 11.6395 52.6126 10.7951 52.9248 9.86667C53.5483 8.01239 53.6601 5.75039 53.6601 4.09H53.1601C53.1601 5.74161 53.0469 7.93461 52.4509 9.70732C52.1533 10.5924 51.7412 11.3545 51.1792 11.8931C50.6232 12.4259 49.9109 12.75 48.9821 12.75V13.25ZM53.6601 4.09C53.6601 3.81741 53.6556 3.55884 53.6511 3.32249C53.6465 3.08507 53.6421 2.87202 53.6421 2.686H53.1421C53.1421 2.87798 53.1467 3.09693 53.1512 3.33201C53.1557 3.56816 53.1601 3.82259 53.1601 4.09H53.6601ZM53.16 2.77878L57.282 13.0928L57.7463 12.9072L53.6243 2.59322L53.16 2.77878ZM57.5141 13.25H59.0621V12.75H57.5141V13.25ZM59.2942 12.9072L54.2542 0.307151L53.79 0.492847L58.83 13.0928L59.2942 12.9072ZM54.0221 0.149999H51.2681V0.649999H54.0221V0.149999ZM51.0181 0.399999V0.526H51.5181V0.399999H51.0181ZM51.2681 0.776C51.6554 0.776 51.9542 0.87161 52.1997 1.06132C52.4497 1.2545 52.6663 1.56214 52.8546 2.02432L53.3176 1.83568C53.1099 1.32586 52.8495 0.931504 52.5055 0.665679C52.157 0.396389 51.7448 0.276 51.2681 0.276V0.776ZM52.8625 2.0418L52.8805 2.0778L53.3277 1.85419L53.3097 1.8182L52.8625 2.0418ZM52.872 1.87322L48.462 12.9072L48.9263 13.0928L53.3363 2.05878L52.872 1.87322ZM59.128 0.526H58.878V0.776H59.128V0.526ZM60.388 13H60.138V13.25H60.388V13ZM60.658 13V13.25H60.908V13H60.658ZM60.658 2.56L60.8607 2.4136L60.408 1.78702V2.56H60.658ZM68.2 13L67.9974 13.1464L68.0722 13.25H68.2V13ZM69.748 13V13.25H70.2352L69.9511 12.8542L69.748 13ZM69.244 12.298H68.994V12.3785L69.0409 12.4438L69.244 12.298ZM69.244 0.399999H69.494V0.149999H69.244V0.399999ZM67.714 0.399999V0.149999H67.464V0.399999H67.714ZM67.714 0.526H67.464V0.776H67.714V0.526ZM68.974 11.92L68.7713 12.0663L69.224 12.6934V11.92H68.974ZM60.658 0.399999L60.8607 0.253673L60.7859 0.149999H60.658V0.399999ZM59.128 0.399999V0.149999H58.878V0.399999H59.128ZM59.128 0.776C59.4692 0.776 59.7035 0.900537 59.8633 1.13011C60.0333 1.37422 60.138 1.76512 60.138 2.326H60.638C60.638 1.71688 60.5267 1.20777 60.2737 0.844394C60.0105 0.466462 59.6148 0.276 59.128 0.276V0.776ZM60.138 2.326V13H60.638V2.326H60.138ZM60.388 13.25H60.658V12.75H60.388V13.25ZM60.908 13V2.56H60.408V13H60.908ZM60.4553 2.7064L67.9974 13.1464L68.4026 12.8536L60.8607 2.4136L60.4553 2.7064ZM68.2 13.25H69.748V12.75H68.2V13.25ZM69.9511 12.8542L69.4471 12.1522L69.0409 12.4438L69.5449 13.1458L69.9511 12.8542ZM69.494 12.298V0.399999H68.994V12.298H69.494ZM69.244 0.149999H67.714V0.649999H69.244V0.149999ZM67.464 0.399999V0.526H67.964V0.399999H67.464ZM67.714 0.776C68.0552 0.776 68.2895 0.900537 68.4493 1.13011C68.6193 1.37422 68.724 1.76512 68.724 2.326H69.224C69.224 1.71688 69.1127 1.20777 68.8597 0.844394C68.5965 0.466462 68.2008 0.276 67.714 0.276V0.776ZM68.724 2.326V11.92H69.224V2.326H68.724ZM69.1767 11.7737L60.8607 0.253673L60.4553 0.546326L68.7713 12.0663L69.1767 11.7737ZM60.658 0.149999H59.128V0.649999H60.658V0.149999ZM58.878 0.399999V0.526H59.378V0.399999H58.878Z" fill="white"/>
</svg>
