<svg width="112" height="22" viewBox="0 0 112 22" fill="none" xmlns="http://www.w3.org/2000/svg">
<path d="M1 1.19635C2.32768 1.19635 3.02039 2.17812 3.02039 4.0014V20.6353H3.45333V4.36606L15.5468 20.6353H18.029L17.2208 19.5414V1H14.7675V1.19635C16.0952 1.19635 16.7879 2.17812 16.7879 4.0014V18.9523L3.45333 1H1V1.19635Z" fill="#87929C"/>
<path d="M22.5808 15.6985L27.372 4.0014V4.02946C27.372 4.45021 27.4009 5.01122 27.4009 5.65638C27.4009 9.02244 27.1123 14.7167 24.8032 17.9986C24.3703 18.6157 23.9085 18.8962 23.5044 18.8962C22.7251 18.8962 22.2922 18.0827 22.2922 17.101C22.2922 16.6522 22.4076 16.1473 22.5808 15.6985ZM20.0698 20.6353H20.5316C26.9102 20.6353 27.6318 11.9116 27.6318 6.75035C27.6318 5.90883 27.6029 5.15147 27.6029 4.56241L34.2125 20.6353H36.6946L28.6131 1H24.1971V1.19635C25.5825 1.19635 26.4773 1.86956 27.1123 3.38429L27.1411 3.44039L20.0698 20.6353Z" fill="#87929C"/>
<path d="M36.6402 1.19635C37.9679 1.19635 38.6606 2.17812 38.6606 4.0014V20.6353H39.0935V5.06732L47.9832 20.6353H50.2922L49.0223 18.3913L56.642 5.03927V20.6353H58.951V1H58.4604L48.7625 17.9705L39.0935 1H36.6402V1.19635Z" fill="#87929C"/>
<path d="M69.1295 21C73.3146 21 75.7679 19.2609 75.7679 15.4741C75.7679 12.1921 73.1414 10.9579 69.9954 9.7798C66.9648 8.65778 64.5981 7.53576 64.5981 4.89902C64.5981 2.48668 66.8494 1.42076 68.5811 1.42076C73.228 1.42076 74.6423 6.8345 74.6423 7.05891L74.8443 7.03086V1H68.8986C65.3774 1 62.9529 2.85133 62.9529 5.85274C62.9529 9.4993 65.9546 10.9299 69.2161 12.2202C72.2756 13.4264 74.4691 14.5203 74.4691 16.7924C74.4691 19.6816 71.3808 20.5792 69.1007 20.5792C66.2433 20.5792 63.6745 17.3254 62.6354 13.9874L62.4334 14.0154L62.8086 19.6816C63.5013 20.1024 65.2908 21 69.1295 21Z" fill="#87929C"/>
<path d="M79.9982 15.6985L84.7894 4.0014V4.02946C84.7894 4.45021 84.8183 5.01122 84.8183 5.65638C84.8183 9.02244 84.5297 14.7167 82.2207 17.9986C81.7877 18.6157 81.3259 18.8962 80.9218 18.8962C80.1425 18.8962 79.7096 18.0827 79.7096 17.101C79.7096 16.6522 79.8251 16.1473 79.9982 15.6985ZM77.4872 20.6353H77.949C84.3276 20.6353 85.0492 11.9116 85.0492 6.75035C85.0492 5.90883 85.0203 5.15147 85.0203 4.56241L91.6299 20.6353H94.1121L86.0305 1H81.6145V1.19635C83 1.19635 83.8947 1.86956 84.5297 3.38429L84.5585 3.44039L77.4872 20.6353Z" fill="#87929C"/>
<path d="M93.971 1.19635C95.2987 1.19635 95.9914 2.17812 95.9914 4.0014V20.6353H96.4244V4.36606L108.518 20.6353H111L110.192 19.5414V1H107.739V1.19635C109.066 1.19635 109.759 2.17812 109.759 4.0014V18.9523L96.4244 1H93.971V1.19635Z" fill="#87929C"/>
<path d="M1 1.19635C2.32768 1.19635 3.02039 2.17812 3.02039 4.0014V20.6353H3.45333V4.36606L15.5468 20.6353H18.029L17.2208 19.5414V1H14.7675V1.19635C16.0952 1.19635 16.7879 2.17812 16.7879 4.0014V18.9523L3.45333 1H1V1.19635Z" stroke="#87929C" stroke-width="0.5"/>
<path d="M22.5808 15.6985L27.372 4.0014V4.02946C27.372 4.45021 27.4009 5.01122 27.4009 5.65638C27.4009 9.02244 27.1123 14.7167 24.8032 17.9986C24.3703 18.6157 23.9085 18.8962 23.5044 18.8962C22.7251 18.8962 22.2922 18.0827 22.2922 17.101C22.2922 16.6522 22.4076 16.1473 22.5808 15.6985ZM20.0698 20.6353H20.5316C26.9102 20.6353 27.6318 11.9116 27.6318 6.75035C27.6318 5.90883 27.6029 5.15147 27.6029 4.56241L34.2125 20.6353H36.6946L28.6131 1H24.1971V1.19635C25.5825 1.19635 26.4773 1.86956 27.1123 3.38429L27.1411 3.44039L20.0698 20.6353Z" stroke="#87929C" stroke-width="0.5"/>
<path d="M36.6402 1.19635C37.9679 1.19635 38.6606 2.17812 38.6606 4.0014V20.6353H39.0935V5.06732L47.9832 20.6353H50.2922L49.0223 18.3913L56.642 5.03927V20.6353H58.951V1H58.4604L48.7625 17.9705L39.0935 1H36.6402V1.19635Z" stroke="#87929C" stroke-width="0.5"/>
<path d="M69.1295 21C73.3146 21 75.7679 19.2609 75.7679 15.4741C75.7679 12.1921 73.1414 10.9579 69.9954 9.7798C66.9648 8.65778 64.5981 7.53576 64.5981 4.89902C64.5981 2.48668 66.8494 1.42076 68.5811 1.42076C73.228 1.42076 74.6423 6.8345 74.6423 7.05891L74.8443 7.03086V1H68.8986C65.3774 1 62.9529 2.85133 62.9529 5.85274C62.9529 9.4993 65.9546 10.9299 69.2161 12.2202C72.2756 13.4264 74.4691 14.5203 74.4691 16.7924C74.4691 19.6816 71.3808 20.5792 69.1007 20.5792C66.2433 20.5792 63.6745 17.3254 62.6354 13.9874L62.4334 14.0154L62.8086 19.6816C63.5013 20.1024 65.2908 21 69.1295 21Z" stroke="#87929C" stroke-width="0.5"/>
<path d="M79.9982 15.6985L84.7894 4.0014V4.02946C84.7894 4.45021 84.8183 5.01122 84.8183 5.65638C84.8183 9.02244 84.5297 14.7167 82.2207 17.9986C81.7877 18.6157 81.3259 18.8962 80.9218 18.8962C80.1425 18.8962 79.7096 18.0827 79.7096 17.101C79.7096 16.6522 79.8251 16.1473 79.9982 15.6985ZM77.4872 20.6353H77.949C84.3276 20.6353 85.0492 11.9116 85.0492 6.75035C85.0492 5.90883 85.0203 5.15147 85.0203 4.56241L91.6299 20.6353H94.1121L86.0305 1H81.6145V1.19635C83 1.19635 83.8947 1.86956 84.5297 3.38429L84.5585 3.44039L77.4872 20.6353Z" stroke="#87929C" stroke-width="0.5"/>
<path d="M93.971 1.19635C95.2987 1.19635 95.9914 2.17812 95.9914 4.0014V20.6353H96.4244V4.36606L108.518 20.6353H111L110.192 19.5414V1H107.739V1.19635C109.066 1.19635 109.759 2.17812 109.759 4.0014V18.9523L96.4244 1H93.971V1.19635Z" stroke="#87929C" stroke-width="0.5"/>
</svg>
