<svg width="70" height="14" viewBox="0 0 70 14" fill="none" xmlns="http://www.w3.org/2000/svg">
<path d="M0 0.62763C0.83552 0.62763 1.27144 1.26578 1.27144 2.45091V13.263H1.5439V2.68794L9.15439 13.263H10.7164L10.2079 12.5519V0.5H8.66398V0.62763C9.4995 0.62763 9.93542 1.26578 9.93542 2.45091V12.169L1.5439 0.5H0V0.62763Z" fill="#060B11"/>
<path d="M13.7362 10.054L16.7513 2.45091V2.46915C16.7513 2.74264 16.7695 3.10729 16.7695 3.52665C16.7695 5.71459 16.5879 9.41585 15.1348 11.5491C14.8623 11.9502 14.5717 12.1325 14.3174 12.1325C13.827 12.1325 13.5546 11.6038 13.5546 10.9656C13.5546 10.6739 13.6272 10.3457 13.7362 10.054ZM12.156 13.263H12.4466C16.4607 13.263 16.9148 7.59257 16.9148 4.23773C16.9148 3.69074 16.8966 3.19846 16.8966 2.81557L21.0561 13.263H22.6181L17.5324 0.5H14.7534V0.62763C15.6252 0.62763 16.1883 1.06522 16.5879 2.04979L16.606 2.08626L12.156 13.263Z" fill="#060B11"/>
<path d="M22.7391 0.62763C23.5746 0.62763 24.0106 1.26578 24.0106 2.45091V13.263H24.283V3.14376L29.8774 13.263H31.3304L30.5312 11.8043L35.3264 3.12553V13.263H36.7795V0.5H36.4707L30.3678 11.5309L24.283 0.5H22.7391V0.62763Z" fill="#060B11"/>
<path d="M43.3401 13.5C45.9738 13.5 47.5177 12.3696 47.5177 9.90814C47.5177 7.7749 45.8648 6.97265 43.885 6.20687C41.9779 5.47756 40.4885 4.74825 40.4885 3.03436C40.4885 1.46634 41.9052 0.773492 42.995 0.773492C45.9193 0.773492 46.8093 4.29243 46.8093 4.43829L46.9365 4.42006V0.5H43.1948C40.9789 0.5 39.4531 1.70337 39.4531 3.65428C39.4531 6.02455 41.3421 6.95442 43.3946 7.79313C45.3199 8.57714 46.7004 9.28822 46.7004 10.7651C46.7004 12.6431 44.7569 13.2265 43.322 13.2265C41.5238 13.2265 39.9072 11.1115 39.2533 8.9418L39.1262 8.96003L39.3623 12.6431C39.7982 12.9166 40.9244 13.5 43.3401 13.5Z" fill="#060B11"/>
<path d="M50.3351 10.054L53.3503 2.45091V2.46915C53.3503 2.74264 53.3684 3.10729 53.3684 3.52665C53.3684 5.71459 53.1868 9.41585 51.7337 11.5491C51.4613 11.9502 51.1706 12.1325 50.9164 12.1325C50.4259 12.1325 50.1535 11.6038 50.1535 10.9656C50.1535 10.6739 50.2261 10.3457 50.3351 10.054ZM48.7549 13.263H49.0455C53.0596 13.263 53.5137 7.59257 53.5137 4.23773C53.5137 3.69074 53.4956 3.19846 53.4956 2.81557L57.655 13.263H59.2171L54.1313 0.5H51.3523V0.62763C52.2241 0.62763 52.7872 1.06522 53.1868 2.04979L53.205 2.08626L48.7549 13.263Z" fill="#060B11"/>
<path d="M59.2836 0.62763C60.1191 0.62763 60.555 1.26578 60.555 2.45091V13.263H60.8274V2.68794L68.4379 13.263H70L69.4914 12.5519V0.5H67.9475V0.62763C68.783 0.62763 69.219 1.26578 69.219 2.45091V12.169L60.8274 0.5H59.2836V0.62763Z" fill="#060B11"/>
<path d="M0 0.62763C0.83552 0.62763 1.27144 1.26578 1.27144 2.45091V13.263H1.5439V2.68794L9.15439 13.263H10.7164L10.2079 12.5519V0.5H8.66398V0.62763C9.4995 0.62763 9.93542 1.26578 9.93542 2.45091V12.169L1.5439 0.5H0V0.62763Z" stroke="#060B11" stroke-width="0.4"/>
<path d="M13.7362 10.054L16.7513 2.45091V2.46915C16.7513 2.74264 16.7695 3.10729 16.7695 3.52665C16.7695 5.71459 16.5879 9.41585 15.1348 11.5491C14.8623 11.9502 14.5717 12.1325 14.3174 12.1325C13.827 12.1325 13.5546 11.6038 13.5546 10.9656C13.5546 10.6739 13.6272 10.3457 13.7362 10.054ZM12.156 13.263H12.4466C16.4607 13.263 16.9148 7.59257 16.9148 4.23773C16.9148 3.69074 16.8966 3.19846 16.8966 2.81557L21.0561 13.263H22.6181L17.5324 0.5H14.7534V0.62763C15.6252 0.62763 16.1883 1.06522 16.5879 2.04979L16.606 2.08626L12.156 13.263Z" stroke="#060B11" stroke-width="0.4"/>
<path d="M22.7391 0.62763C23.5746 0.62763 24.0106 1.26578 24.0106 2.45091V13.263H24.283V3.14376L29.8774 13.263H31.3304L30.5312 11.8043L35.3264 3.12553V13.263H36.7795V0.5H36.4707L30.3678 11.5309L24.283 0.5H22.7391V0.62763Z" stroke="#060B11" stroke-width="0.4"/>
<path d="M43.3401 13.5C45.9738 13.5 47.5177 12.3696 47.5177 9.90814C47.5177 7.7749 45.8648 6.97265 43.885 6.20687C41.9779 5.47756 40.4885 4.74825 40.4885 3.03436C40.4885 1.46634 41.9052 0.773492 42.995 0.773492C45.9193 0.773492 46.8093 4.29243 46.8093 4.43829L46.9365 4.42006V0.5H43.1948C40.9789 0.5 39.4531 1.70337 39.4531 3.65428C39.4531 6.02455 41.3421 6.95442 43.3946 7.79313C45.3199 8.57714 46.7004 9.28822 46.7004 10.7651C46.7004 12.6431 44.7569 13.2265 43.322 13.2265C41.5238 13.2265 39.9072 11.1115 39.2533 8.9418L39.1262 8.96003L39.3623 12.6431C39.7982 12.9166 40.9244 13.5 43.3401 13.5Z" stroke="#060B11" stroke-width="0.4"/>
<path d="M50.3351 10.054L53.3503 2.45091V2.46915C53.3503 2.74264 53.3684 3.10729 53.3684 3.52665C53.3684 5.71459 53.1868 9.41585 51.7337 11.5491C51.4613 11.9502 51.1706 12.1325 50.9164 12.1325C50.4259 12.1325 50.1535 11.6038 50.1535 10.9656C50.1535 10.6739 50.2261 10.3457 50.3351 10.054ZM48.7549 13.263H49.0455C53.0596 13.263 53.5137 7.59257 53.5137 4.23773C53.5137 3.69074 53.4956 3.19846 53.4956 2.81557L57.655 13.263H59.2171L54.1313 0.5H51.3523V0.62763C52.2241 0.62763 52.7872 1.06522 53.1868 2.04979L53.205 2.08626L48.7549 13.263Z" stroke="#060B11" stroke-width="0.4"/>
<path d="M59.2836 0.62763C60.1191 0.62763 60.555 1.26578 60.555 2.45091V13.263H60.8274V2.68794L68.4379 13.263H70L69.4914 12.5519V0.5H67.9475V0.62763C68.783 0.62763 69.219 1.26578 69.219 2.45091V12.169L60.8274 0.5H59.2836V0.62763Z" stroke="#060B11" stroke-width="0.4"/>
</svg>
