<svg width="84" height="18" viewBox="0 0 84 18" fill="none" xmlns="http://www.w3.org/2000/svg">
<path d="M0 1.15708C1.00924 1.15708 1.53579 1.9425 1.53579 3.40112V16.7083H1.86489V3.69285L11.0577 16.7083H12.9446L12.3302 15.8331V1H10.4653V1.15708C11.4746 1.15708 12.0011 1.9425 12.0011 3.40112V15.3619L1.86489 1H0V1.15708Z" fill="#060B11"/>
<path d="M16.4814 12.7588L20.1234 3.40112V3.42356C20.1234 3.76017 20.1453 4.20898 20.1453 4.72511C20.1453 7.41795 19.9259 11.9734 18.1707 14.5989C17.8416 15.0926 17.4906 15.317 17.1834 15.317C16.5911 15.317 16.262 14.6662 16.262 13.8808C16.262 13.5217 16.3497 13.1178 16.4814 12.7588ZM14.5726 16.7083H14.9236C19.7723 16.7083 20.3208 9.72931 20.3208 5.60028C20.3208 4.92707 20.2989 4.32118 20.2989 3.84993L25.3231 16.7083H27.21L21.0668 1H17.71V1.15708C18.7631 1.15708 19.4432 1.69565 19.9259 2.90744L19.9479 2.95232L14.5726 16.7083Z" fill="#060B11"/>
<path d="M27.2453 1.15708C28.2545 1.15708 28.7811 1.9425 28.7811 3.40112V16.7083H29.1102V4.25386L35.8677 16.7083H37.6229L36.6575 14.913L42.4497 4.23142V16.7083H44.2049V1H43.8319L36.4601 14.5764L29.1102 1H27.2453V1.15708Z" fill="#060B11"/>
<path d="M52.0188 17C55.2 17 57.0649 15.6087 57.0649 12.5792C57.0649 9.95372 55.0684 8.96634 52.6769 8.02384C50.3733 7.12623 48.5742 6.22861 48.5742 4.11921C48.5742 2.18934 50.2855 1.33661 51.6019 1.33661C55.1342 1.33661 56.2093 5.6676 56.2093 5.84713L56.3629 5.82468V1H51.8432C49.1666 1 47.3236 2.48107 47.3236 4.88219C47.3236 7.79944 49.6054 8.9439 52.0846 9.97616C54.4102 10.9411 56.0776 11.8163 56.0776 13.6339C56.0776 15.9453 53.7301 16.6634 51.9968 16.6634C49.8248 16.6634 47.8721 14.0603 47.0823 11.3899L46.9287 11.4123L47.2139 15.9453C47.7405 16.2819 49.1007 17 52.0188 17Z" fill="#060B11"/>
<path d="M60.3573 12.7588L63.9993 3.40112V3.42356C63.9993 3.76017 64.0213 4.20898 64.0213 4.72511C64.0213 7.41795 63.8019 11.9734 62.0467 14.5989C61.7176 15.0926 61.3665 15.317 61.0594 15.317C60.467 15.317 60.1379 14.6662 60.1379 13.8808C60.1379 13.5217 60.2257 13.1178 60.3573 12.7588ZM58.4485 16.7083H58.7996C63.6483 16.7083 64.1968 9.72931 64.1968 5.60028C64.1968 4.92707 64.1749 4.32118 64.1749 3.84993L69.1991 16.7083H71.0859L64.9428 1H61.5859V1.15708C62.6391 1.15708 63.3192 1.69565 63.8019 2.90744L63.8238 2.95232L58.4485 16.7083Z" fill="#060B11"/>
<path d="M71.0554 1.15708C72.0647 1.15708 72.5912 1.9425 72.5912 3.40112V16.7083H72.9203V3.69285L82.1132 16.7083H84L83.3857 15.8331V1H81.5208V1.15708C82.53 1.15708 83.0566 1.9425 83.0566 3.40112V15.3619L72.9203 1H71.0554V1.15708Z" fill="#060B11"/>
<path d="M0 1.15708C1.00924 1.15708 1.53579 1.9425 1.53579 3.40112V16.7083H1.86489V3.69285L11.0577 16.7083H12.9446L12.3302 15.8331V1H10.4653V1.15708C11.4746 1.15708 12.0011 1.9425 12.0011 3.40112V15.3619L1.86489 1H0V1.15708Z" stroke="#060B11" stroke-width="0.5"/>
<path d="M16.4814 12.7588L20.1234 3.40112V3.42356C20.1234 3.76017 20.1453 4.20898 20.1453 4.72511C20.1453 7.41795 19.9259 11.9734 18.1707 14.5989C17.8416 15.0926 17.4906 15.317 17.1834 15.317C16.5911 15.317 16.262 14.6662 16.262 13.8808C16.262 13.5217 16.3497 13.1178 16.4814 12.7588ZM14.5726 16.7083H14.9236C19.7723 16.7083 20.3208 9.72931 20.3208 5.60028C20.3208 4.92707 20.2989 4.32118 20.2989 3.84993L25.3231 16.7083H27.21L21.0668 1H17.71V1.15708C18.7631 1.15708 19.4432 1.69565 19.9259 2.90744L19.9479 2.95232L14.5726 16.7083Z" stroke="#060B11" stroke-width="0.5"/>
<path d="M27.2453 1.15708C28.2545 1.15708 28.7811 1.9425 28.7811 3.40112V16.7083H29.1102V4.25386L35.8677 16.7083H37.6229L36.6575 14.913L42.4497 4.23142V16.7083H44.2049V1H43.8319L36.4601 14.5764L29.1102 1H27.2453V1.15708Z" stroke="#060B11" stroke-width="0.5"/>
<path d="M52.0188 17C55.2 17 57.0649 15.6087 57.0649 12.5792C57.0649 9.95372 55.0684 8.96634 52.6769 8.02384C50.3733 7.12623 48.5742 6.22861 48.5742 4.11921C48.5742 2.18934 50.2855 1.33661 51.6019 1.33661C55.1342 1.33661 56.2093 5.6676 56.2093 5.84713L56.3629 5.82468V1H51.8432C49.1666 1 47.3236 2.48107 47.3236 4.88219C47.3236 7.79944 49.6054 8.9439 52.0846 9.97616C54.4102 10.9411 56.0776 11.8163 56.0776 13.6339C56.0776 15.9453 53.7301 16.6634 51.9968 16.6634C49.8248 16.6634 47.8721 14.0603 47.0823 11.3899L46.9287 11.4123L47.2139 15.9453C47.7405 16.2819 49.1007 17 52.0188 17Z" stroke="#060B11" stroke-width="0.5"/>
<path d="M60.3573 12.7588L63.9993 3.40112V3.42356C63.9993 3.76017 64.0213 4.20898 64.0213 4.72511C64.0213 7.41795 63.8019 11.9734 62.0467 14.5989C61.7176 15.0926 61.3665 15.317 61.0594 15.317C60.467 15.317 60.1379 14.6662 60.1379 13.8808C60.1379 13.5217 60.2257 13.1178 60.3573 12.7588ZM58.4485 16.7083H58.7996C63.6483 16.7083 64.1968 9.72931 64.1968 5.60028C64.1968 4.92707 64.1749 4.32118 64.1749 3.84993L69.1991 16.7083H71.0859L64.9428 1H61.5859V1.15708C62.6391 1.15708 63.3192 1.69565 63.8019 2.90744L63.8238 2.95232L58.4485 16.7083Z" stroke="#060B11" stroke-width="0.5"/>
<path d="M71.0554 1.15708C72.0647 1.15708 72.5912 1.9425 72.5912 3.40112V16.7083H72.9203V3.69285L82.1132 16.7083H84L83.3857 15.8331V1H81.5208V1.15708C82.53 1.15708 83.0566 1.9425 83.0566 3.40112V15.3619L72.9203 1H71.0554V1.15708Z" stroke="#060B11" stroke-width="0.5"/>
</svg>
